HIERARCHY
ROOT Hips
{
  OFFSET 13.6774 106.653 -34.4427
  CHANNELS 6 Xposition Yposition Zposition Zrotation Xrotation Yrotation
  JOINT ToSpine
  {
    OFFSET -2.69724 7.43032 -0.144315
    CHANNELS 3 Zrotation Xrotation Yrotation
    JOINT Spine
    {
      OFFSET -0.0310711 10.7595 1.96963
      CHANNELS 3 Zrotation Xrotation Yrotation
      JOINT Spine1
      {
        OFFSET 19.9056 3.91189 0.764692
        CHANNELS 3 Zrotation Xrotation Yrotation
        JOINT Neck
        {
          OFFSET 25.9749 7.03908 -0.130764
          CHANNELS 3 Zrotation Xrotation Yrotation
          JOINT Head
          {
            OFFSET 9.52751 0.295786 -0.907742
            CHANNELS 3 Zrotation Xrotation Yrotation
            End Site
            {
              OFFSET 16.4037 0.713936 2.7358
            }
          }
        }
        JOINT LeftShoulder
        {
          OFFSET 17.7449 4.33886 11.7777
          CHANNELS 3 Zrotation Xrotation Yrotation
          JOINT LeftArm
          {
            OFFSET 0.911315 1.27913 9.80584
            CHANNELS 3 Zrotation Xrotation Yrotation
            JOINT LeftForeArm
            {
              OFFSET 28.6126 1.18197 -3.53199
              CHANNELS 3 Zrotation Xrotation Yrotation
              JOINT LeftHand
              {
                OFFSET 27.5088 0.0218783 0.327423
                CHANNELS 3 Zrotation Xrotation Yrotation
                End Site
                {
                  OFFSET 18.6038 -0.000155887 0.382096
                }
              }
            }
          }
        }
        JOINT RightShoulder
        {
          OFFSET 17.1009 2.89543 -12.2328
          CHANNELS 3 Zrotation Xrotation Yrotation
          JOINT RightArm
          {
            OFFSET 1.4228 0.178766 -10.211
            CHANNELS 3 Zrotation Xrotation Yrotation
            JOINT RightForeArm
            {
              OFFSET 28.733 1.87905 2.64907
              CHANNELS 3 Zrotation Xrotation Yrotation
              JOINT RightHand
              {
                OFFSET 27.4588 0.290562 -0.101845
                CHANNELS 3 Zrotation Xrotation Yrotation
                End Site
                {
                  OFFSET 17.8396 -0.255518 -0.000602873
                }
              }
            }
          }
        }
      }
    }
  }
  JOINT LeftUpLeg
  {
    OFFSET -5.61296 -2.22332 -10.2353
    CHANNELS 3 Zrotation Xrotation Yrotation
    JOINT LeftLeg
    {
      OFFSET 2.56703 -44.7417 -7.93097
      CHANNELS 3 Zrotation Xrotation Yrotation
      JOINT LeftFoot
      {
        OFFSET 3.16933 -46.5642 -3.96578
        CHANNELS 3 Zrotation Xrotation Yrotation
        JOINT LeftToeBase
        {
          OFFSET 0.346054 -6.02161 12.8035
          CHANNELS 3 Zrotation Xrotation Yrotation
          End Site
          {
            OFFSET 0.134235 -1.35082 5.13018
          }
        }
      }
    }
  }
  JOINT RightUpLeg
  {
    OFFSET -5.7928 -1.72406 10.6446
    CHANNELS 3 Zrotation Xrotation Yrotation
    JOINT RightLeg
    {
      OFFSET -2.57161 -44.7178 -7.85259
      CHANNELS 3 Zrotation Xrotation Yrotation
      JOINT RightFoot
      {
        OFFSET -3.10148 -46.5936 -4.03391
        CHANNELS 3 Zrotation Xrotation Yrotation
        JOINT RightToeBase
        {
          OFFSET -0.0828122 -6.13587 12.8035
          CHANNELS 3 Zrotation Xrotation Yrotation
          End Site
          {
            OFFSET -0.131328 -1.35082 5.13018
          }
        }
      }
    }
  }
}
MOTION
Frames: 15
Frame Time: 0.03333333333333333
0.0000 93.1000 0.0000 -55.8621 -48.0317 -148.9009 -71.0018 -0.0883 87.9897 97.9107 74.7769 -10.1051 -0.3488 26.8858 -5.6155 -127.9107 18.7475 -173.4150 -162.2576 55.2245 -160.2529 0.2837 -11.1182 -14.2946 -128.0136 41.0606 -92.8234 14.8567 -6.5808 -112.1808 0.0881 0.1247 -0.0010 -0.8240 10.9746 10.8398 -70.8133 -54.1104 155.5008 17.1423 5.9877 109.0318 0.0972 -0.0633 -0.2299 -33.9185 17.6912 92.5681 -2.8607 37.9771 -2.8663 -1.0601 -1.1715 -0.3126 1.5486 -4.0285 -2.6695 -56.2075 -9.0852 76.8512 0.7450 28.1755 -3.1164 -6.0784 -4.8087 0.2639 1.5086 -20.0425 -4.2630 
0.0000 93.1000 0.0000 -58.8411 -46.0476 -153.0185 -71.0024 0.0820 87.9927 91.0361 74.5627 -3.9243 0.7062 25.9706 -5.6273 -129.1722 19.0846 -173.1814 -161.4202 55.4552 -162.2518 0.3695 -10.9130 -14.4449 -129.8774 39.8634 -89.6996 14.4500 -7.1035 -113.3770 0.2547 0.3372 -0.2914 -0.7516 10.5700 11.5986 -67.8455 -53.1919 157.8415 17.5375 6.2482 109.0592 -0.0565 -0.2078 -0.3945 -37.1086 18.4108 93.1490 -1.8487 34.4160 -1.9842 -2.6883 0.7404 -0.1436 0.9193 -4.6965 0.0952 -55.9664 -8.9652 77.8201 -0.1922 27.7649 0.0062 -4.8625 -5.3243 0.4311 1.4479 -18.4438 -3.9511 
0.0000 93.1000 0.0000 -60.8769 -44.0653 -156.3641 -71.0014 0.1470 87.9933 89.7293 73.8517 -1.5262 1.4199 25.5541 -5.6786 -129.9843 18.9990 -172.1987 -163.1853 55.5820 -161.0912 0.3317 -10.9829 -14.7060 -130.9672 39.2980 -87.7863 13.9808 -7.3656 -113.6497 0.1718 0.4125 -0.1739 -0.8079 10.1737 12.6418 -65.3408 -52.6837 159.8263 16.8462 6.0079 109.0383 -0.1029 -0.2781 -0.5370 -39.1698 19.1038 94.3626 -2.2714 32.3602 -1.1880 -4.0286 2.2828 0.1393 -0.1854 -4.0912 2.4552 -55.8841 -8.3151 78.5831 -0.3520 26.6606 2.0455 -5.4478 -5.5430 0.5964 1.8111 -20.0001 -1.7275 
0.0000 93.1000 0.0000 -61.8841 -43.1589 -157.0691 -71.0013 -0.1765 87.9944 87.1574 73.2559 0.5118 1.8952 24.8891 -5.1936 -130.4523 19.2078 -173.0473 -161.1315 55.9630 -165.0727 0.8355 -11.0948 -15.0047 -131.2058 39.1675 -86.8099 14.1177 -7.4242 -114.1102 -0.0096 0.0048 -0.0759 -0.6054 9.3336 14.2759 -64.0707 -51.0431 159.3626 15.0756 5.5619 109.8751 0.1275 0.1628 0.0238 -40.8738 19.2608 95.9419 -2.2760 31.1035 -2.1679 -5.2137 2.1337 0.1695 -1.0095 -2.9436 4.8286 -56.8561 -7.8571 79.2018 0.0188 25.9447 3.5303 -4.9185 -7.6276 0.5854 1.7931 -17.9744 -1.8385 
0.0000 93.1000 0.0000 -63.0146 -43.1425 -158.9908 -71.0010 -0.1694 87.9945 84.0055 72.3758 3.3319 3.1447 23.8537 -4.3244 -131.2070 19.7290 -172.6976 -162.2913 56.1975 -165.0343 1.0579 -11.2957 -15.9136 -131.9374 39.1794 -85.6420 14.7259 -8.2155 -115.3400 0.0046 -0.0515 -0.0991 -0.6605 8.9911 15.2069 -61.8472 -50.2642 159.5996 14.4024 5.6550 110.1321 -0.0538 0.1740 0.1027 -41.7476 19.7201 98.0207 -2.4520 31.3438 -5.3353 -5.9517 -0.1484 -0.0178 -0.6790 -2.7518 7.3395 -56.9637 -7.2839 79.2462 -0.9633 25.9612 3.0553 -4.6064 -8.9497 0.8210 1.1588 -14.4345 -0.7593 
0.0000 93.1000 0.0000 -63.8529 -43.0209 -159.8873 -71.0003 -0.1264 87.9946 83.8222 72.1787 4.0648 3.7000 23.3499 -3.4984 -131.3083 20.1977 -172.7876 -161.4049 56.6910 -166.1000 1.6237 -11.1644 -16.8805 -131.9493 39.1996 -84.9290 15.3246 -8.7279 -116.4277 -0.0432 -0.1741 -0.0444 -0.3871 8.8550 16.1067 -60.2359 -49.2158 158.8146 13.1613 5.2963 110.9090 -0.1189 0.2460 0.4191 -42.1027 18.8792 99.3238 -2.6098 33.4464 -8.1071 -6.1507 -2.8595 -0.4306 -0.0571 -2.8928 6.2955 -56.9179 -6.8151 79.0883 -1.1812 27.9146 2.5656 -3.6706 -10.4938 0.8635 1.2953 -11.7968 -0.4876 
0.0000 93.1000 0.0000 -65.0248 -43.0651 -160.7455 -71.0057 -0.2070 87.9930 83.9928 71.8956 4.8049 4.0074 22.8717 -3.7005 -131.2442 20.2977 -172.9619 -160.3684 56.8543 -166.9741 0.8297 -11.4596 -18.5198 -131.1259 39.1620 -83.7245 16.1960 -9.6121 -117.2728 -0.4246 -0.2074 -0.0137 -0.8059 8.9439 16.9347 -59.8739 -49.2002 157.0869 12.9197 5.0230 111.0793 -0.0580 0.2925 0.2792 -42.3133 18.0366 98.9784 -2.7594 34.3173 -9.0921 -6.1561 -2.9060 -0.0376 0.8897 -6.0348 7.4835 -56.0879 -6.2259 79.7786 -1.1404 30.0427 3.1197 -4.3142 -11.9634 0.6412 1.0892 -10.7838 -1.9481 
0.0000 93.1000 0.0000 -66.1050 -42.7064 -161.9055 -71.0068 -0.1468 87.9951 83.7397 71.9475 5.8977 4.4110 22.5006 -3.9238 -131.2487 20.3799 -171.7987 -161.0930 57.1773 -166.9201 0.5993 -11.0820 -18.6797 -131.0964 39.8612 -82.8501 17.1006 -10.4273 -118.1795 -0.4831 -0.1942 -0.0768 -0.9475 9.0438 17.8424 -58.9782 -49.2554 156.7552 12.9861 5.0246 111.0267 0.1036 0.2499 0.1734 -43.2029 17.4877 99.1511 -3.0611 33.1814 -7.4274 -5.9335 -1.8257 0.1506 1.1563 -7.1131 6.9349 -55.6566 -5.8496 81.1462 -0.9478 30.1804 3.8359 -4.5778 -13.0648 0.3583 0.8138 -9.8702 -2.4766 
0.0000 93.1000 0.0000 -66.5382 -42.0837 -162.6893 -71.0082 -0.2399 87.9951 83.8483 71.9881 5.8828 4.5959 22.9237 -4.3385 -131.0980 20.1168 -170.5108 -160.4268 56.5628 -166.9695 0.5086 -11.0599 -18.8685 -131.8368 40.1961 -81.5780 17.1439 -10.5221 -117.8170 -0.2322 -0.2593 -0.1838 -1.0080 9.5262 18.5006 -58.2734 -49.1006 156.0613 13.1708 4.7432 110.9940 0.1646 0.2855 0.2477 -43.9296 17.8030 99.2436 -1.8370 33.2742 -6.1417 -5.8596 -1.5103 0.2354 1.3580 -6.7630 6.5854 -54.9791 -5.7866 82.4849 -0.8174 32.1132 4.6528 -3.5685 -13.9464 0.2547 0.9869 -8.8275 -5.1969 
0.0000 93.1000 0.0000 -68.3930 -41.5385 -163.7214 -71.0032 -0.1365 87.9974 85.8720 72.0215 5.1544 4.4908 22.9872 -4.1025 -130.2706 19.9589 -171.6164 -158.1884 56.1994 -168.2257 1.0643 -11.0055 -18.9046 -131.1875 39.4805 -81.6769 17.6873 -10.5823 -118.1242 0.1023 -0.2297 -0.2952 -0.7034 9.7795 19.0608 -57.8528 -48.9740 155.8645 13.1812 4.9034 110.6917 0.0761 0.2537 0.2938 -45.1754 18.0666 98.8524 -2.2166 33.1825 -5.2738 -6.1997 -1.9820 -0.0437 1.8835 -6.7888 3.7083 -54.2326 -5.2071 83.9468 -1.0372 34.0325 3.9193 -4.6249 -14.8461 0.6613 1.1397 -8.4778 -6.2098 
0.0000 93.1000 0.0000 -68.6700 -41.1286 -164.8134 -71.0013 -0.1615 88.0010 86.9671 71.7995 4.0027 4.4126 22.9437 -4.2960 -129.2704 19.9110 -171.0091 -158.0955 56.1004 -168.1993 1.3059 -11.0294 -18.9298 -131.1707 38.2938 -81.6165 18.7814 -10.9184 -117.8526 0.0290 -0.2973 -0.0625 -0.5984 9.9550 19.1488 -58.2159 -48.2340 155.8374 12.8310 5.1384 110.7163 0.0563 0.3678 0.3924 -45.9878 17.7187 98.9602 -2.0168 32.2527 -5.0351 -5.5603 -1.7175 -0.2824 2.1877 -6.9918 3.2905 -53.6111 -4.9796 86.9082 -0.1280 35.4084 1.5607 -5.4608 -15.6376 0.8978 1.1916 -9.1906 -7.4256 
0.0000 93.1000 0.0000 -68.9360 -41.2345 -165.8435 -71.0021 0.0893 88.0007 85.9327 72.1623 3.9379 4.4706 22.8094 -3.7434 -129.1788 19.9121 -170.8318 -158.1758 56.0744 -167.2683 0.8582 -11.1254 -19.0147 -131.0698 37.7154 -81.6966 18.8814 -11.0530 -117.6659 -0.0183 -0.0202 -0.1469 -0.7859 9.8070 19.5074 -58.9430 -47.8581 154.8879 12.1013 4.9211 111.1059 -0.1845 0.0926 0.0527 -46.2500 17.1915 98.8163 -2.1409 32.1518 -4.2972 -5.7350 -1.1441 -0.1922 2.5343 -7.3751 2.7073 -52.9540 -4.2867 89.0643 0.2262 37.1855 0.2412 -6.3876 -16.1044 1.1062 1.5373 -10.9548 -8.7549 
0.0000 93.1000 0.0000 -68.9273 -42.0323 -165.9341 -71.0068 -0.0987 88.0015 85.9000 72.0717 3.9034 4.1850 22.9348 -3.7420 -129.3242 20.0060 -170.9705 -158.5420 56.0187 -167.0910 0.4841 -11.2272 -19.2581 -130.9237 37.2695 -81.4843 17.0616 -10.5175 -117.8056 -0.0494 -0.0920 -0.0720 -1.0184 9.9361 18.8716 -59.0035 -48.0103 154.9869 12.1332 4.4724 110.7636 -0.0277 0.0929 -0.0469 -46.0848 16.5645 98.9429 -1.6148 32.1038 -4.6788 -5.3112 -0.3611 0.0308 2.5442 -8.1441 3.2326 -52.8373 -4.6003 90.1787 0.8758 38.1350 -1.1763 -6.4864 -16.1320 0.9883 2.2510 -11.8384 -10.9280 
0.0000 93.1000 0.0000 -68.9923 -42.0236 -166.1723 -71.0058 0.1270 88.0041 85.8205 72.0875 4.8181 4.5372 22.9195 -3.8507 -129.2898 19.8731 -170.8228 -158.4901 56.0795 -168.1858 0.4985 -11.5720 -19.4639 -131.2261 37.0279 -81.6185 17.7895 -10.5063 -117.3702 -0.1109 0.0704 -0.0693 -0.9515 9.9715 18.2060 -59.3218 -48.1848 154.9154 11.8630 4.8059 110.8464 -0.1770 -0.0191 -0.1531 -46.0839 16.2590 99.1104 -2.0588 31.4915 -5.0021 -5.2398 -0.0582 -0.0759 2.0692 -7.8199 4.8980 -52.7873 -4.9212 90.3854 0.9839 38.0705 -0.7218 -7.1288 -15.8736 1.1426 2.1389 -11.3976 -11.4039 
0.0000 93.1000 0.0000 -69.0278 -42.1411 -166.4089 -71.0066 -0.1223 88.0052 83.8687 72.0359 6.3865 4.8361 23.0795 -4.2334 -129.2675 20.0095 -171.0166 -158.3614 55.9973 -168.1543 0.7012 -11.4108 -19.7881 -131.0149 37.1915 -82.4837 17.5366 -10.2056 -117.2252 -0.0411 -0.1384 0.0530 -0.9230 10.0922 18.4797 -59.9079 -48.2324 154.6445 11.8530 4.7201 111.0846 -0.0073 0.2492 0.1132 -45.2964 15.9561 99.1616 -2.1080 32.2894 -4.7963 -5.5088 -0.5774 -0.0217 1.5743 -6.1968 4.1069 -52.6089 -5.1188 89.9336 0.9658 38.2608 -1.2207 -7.1170 -16.0464 1.1742 2.1250 -11.3627 -11.0218 
